<svg xmlns="http://www.w3.org/2000/svg" viewBox="20 0 27 18">
    <path
        d="M43.2764 17.7671c1.38-.4687 2.4537-2.0575 2.7125-4.0562v-.5775h-7.075v4.6337zm2.7128-13.1308v-.5226C45.718 2.0287 44.5643.3863 43.093 0h-4.1787v4.6363zM21.085 13.1335v.5725c.2562 2 1.33 3.5925 2.7137 4.0613h4.34v-4.6338zM23.98.0006c-1.4687.3863-2.6262 2.03-2.895 4.1175v.5188h7.0538V.0006zm22.0097 6.5662h-7.075v4.6362h7.075zm-15.9238 11.2h6.9213V13.133H30.066zM36.9873.0005H30.066v4.6362h6.9212zM21.0848 11.203h7.0537V6.5668h-7.0537z"
        fill="#ee2e24" />
</svg>