<svg viewBox="0 0 90 90" xmlns="http://www.w3.org/2000/svg"><g fill="none" fill-rule="evenodd"><path fill="#FFF" d="M0 0h90v90H0z"/><path d="M45 0c-1.098 0-2.186.042-3.264.12l-8.632 23.92h7.56c5.448 0 7.667 4.237 6.024 9.044L35.56 63.877H24.438l12.246-33.886H30.95L18.708 63.877H7.484l22.08-61.142C12.343 9.056 0 25.633 0 45c0 20.916 14.395 38.577 33.785 43.581l23.359-64.715H75.41c3.774 0 8.411 2.49 6.457 8.284-1.96 5.797-9.02 25.085-10.322 28.762-1.304 3.677-4.437 4.416-6.917 4.416H53.401l-8.904 24.665L45 90c24.785 0 45-20.215 45-45S69.784 0 45 0Zm27.51 29.895a.522.522 0 0 0 0-.322c-.086-.169-.279-.265-.522-.29h-5.512c-.431.027-.725.175-.9.428l-1.9 5.264-9.058 25.096h6.998l2.06-5.705 8.834-24.471Z" fill="#0096D6"/></g></svg>