<svg viewBox="0 0 90 90" xmlns="http://www.w3.org/2000/svg"><g fill="none" fill-rule="evenodd"><path fill="#717074" d="M0 0h90v90H0z"/><path d="M71.121 30c-5.385 0-8.76 3.75-8.76 3.75-1.793-2.338-4.265-3.744-8.449-3.744-4.418 0-7.348 3.744-7.348 3.744C44.771 31.412 41.531 30 39 30c-3.914 0-7.02 1.729-8.918 6.088L23.73 49.98l-7.183-17.642c-.908-1.998-3.147-2.9-5.233-1.969-2.091.938-2.859 3.27-1.916 5.268l8.772 19.781C19.547 58.424 21.006 60 23.73 60c2.918 0 4.184-1.717 5.567-4.582 0 0 5.97-13.324 6.703-14.918.732-1.594 1.951-3 3.75-3a3.761 3.761 0 0 1 3.75 3.75v14.813C43.5 58.23 45.129 60 47.285 60 49.435 60 51 58.23 51 56.062V41.25a3.761 3.761 0 0 1 3.75-3.75 3.761 3.761 0 0 1 3.75 3.75v15A3.761 3.761 0 0 0 62.25 60 3.761 3.761 0 0 0 66 56.25v-15a3.761 3.761 0 0 1 3.75-3.75 3.761 3.761 0 0 1 3.75 3.75v15A3.761 3.761 0 0 0 77.25 60 3.761 3.761 0 0 0 81 56.25V39.533C81 33.926 76.518 30 71.121 30Z" fill="#FFF" fill-rule="nonzero"/></g></svg>